# xmcd
#
# Track frame offsets: 
#        150
#        11922
#        24609
#        50261
#        63838
#        74949
#        89185
#        103636
#        116729
#        130334
#        144435
#        157158
#        169543
#        182721
#        194979
#        208007
#        220284
#        232734
#        246791
#        261872
#        275124
#
# Disc length: 3887 seconds
#
# Revision: 0
# Processed by: cddbd v1.5.2PL0 Copyright (c) Steve Scherf et al.
# Submitted via: ExactAudioCopy v0.99pb3
#
DISCID=4f0f2d15
DTITLE=The ways of the blues N°2 - Gospels In The Blues
DYEAR=1900
DGENRE=Blues
TTITLE0=Will the circle be unbroken , The staple singers 
TTITLE1=Preachin' the blues , Bessie Smith
TTITLE2=Preachin' blues , Son House
TTITLE3=Lord I wish I could see , Blind Gary Davis
TTITLE4=I want to see Jesus , Brother George
TTITLE5=Jesus is cominng soon , Blind Willie Johnson
TTITLE6=King of kings , Rev. Johnny Blakey, Sermons
TTITLE7=Lord have mercy if you please , Curley Weaver
TTITLE8=Jesus gonna make up mu diying bed , Joshua White
TTITLE9=Drinking Shine , Elder Charlie Beck
TTITLE10=Denomination blues - part 1 , Washington Phillips
TTITLE11=Crying holy unto the lord , The Blue Chips
TTITLE12=Gods's got a crown , Arizona Dranes and Choir
TTITLE13=Denomination blues - part 2 , Washington Philiips
TTITLE14=On revival day , Bessie Smith
TTITLE15=Sunshine in the shadows , Jessie May Hill
TTITLE16=The bible's right , Sister O.M Terrell
TTITLE17=Let your light shine on me , Blind Willie Johnson
TTITLE18=God's river , Emmet Miller
TTITLE19=He'll have to go , The Holmes Brothers
TTITLE20=If I need you , The Holmes Brothers
EXTD=
EXTT0=
EXTT1=
EXTT2=
EXTT3=
EXTT4=
EXTT5=
EXTT6=
EXTT7=
EXTT8=
EXTT9=
EXTT10=
EXTT11=
EXTT12=
EXTT13=
EXTT14=
EXTT15=
EXTT16=
EXTT17=
EXTT18=
EXTT19=
EXTT20=
PLAYORDER=
